<svg aria-hidden="true" style="position: absolute; width: 0; height: 0; overflow: hidden;" version="1.1" xmlns="http://www.w3.org/2000/svg" xmlns:xlink="http://www.w3.org/1999/xlink">
<defs>
<symbol id="fbIcon" viewBox="0 0 32 32">
<path d="M32 16.097c0-8.836-7.164-16-16-16s-16 7.164-16 16c0 7.987 5.851 14.605 13.5 15.805v-11.18h-4.063v-4.627h4.063v-3.523c0-4.009 2.389-6.225 6.044-6.225 1.749 0 3.581 0.313 3.581 0.313v3.937h-2.019c-1.988 0-2.608 1.233-2.608 2.499v3h4.437l-0.709 4.627h-3.728v11.18c7.651-1.201 13.501-7.821 13.501-15.807z"></path>
</symbol>
<symbol id="googleIcon" viewBox="0 0 32 32">
<path d="M16.64 14.56v4.373h10.453c-0.32 2.453-1.137 4.249-2.383 5.511-1.529 1.529-3.911 3.2-8.071 3.2-6.436 0-11.467-5.191-11.467-11.627s5.031-11.627 11.467-11.627c3.467 0 6.009 1.369 7.876 3.129l3.076-3.076c-2.596-2.524-6.081-4.444-10.952-4.444-8.817 0-16.231 7.183-16.231 16s7.413 16 16.231 16c4.764 0 8.356-1.564 11.164-4.48 2.88-2.88 3.787-6.951 3.787-10.223 0-1.013-0.071-1.956-0.231-2.737h-14.72z"></path>
</symbol>
<symbol id="twitterIcon" viewBox="0 0 32 32">
<path d="M28.724 9.472c0.020 0.281 0.020 0.564 0.020 0.848 0 8.676-6.605 18.68-18.68 18.68v-0.004c-0.008 0-0.017 0-0.025 0-3.729 0-7.201-1.098-10.111-2.988l0.072 0.044c0.473 0.060 1.020 0.095 1.576 0.095 3.085 0 5.923-1.061 8.168-2.837l-0.028 0.021c-2.861-0.056-5.269-1.931-6.12-4.514l-0.013-0.046c0.373 0.075 0.802 0.119 1.241 0.119 0.613 0 1.206-0.084 1.769-0.242l-0.046 0.011c-3.025-0.628-5.266-3.27-5.267-6.436v-0.083c0.859 0.488 1.881 0.788 2.97 0.821l0.010 0c-1.772-1.195-2.922-3.196-2.922-5.464 0-1.215 0.33-2.354 0.905-3.33l-0.017 0.031c3.252 3.979 8.064 6.577 13.488 6.857l0.045 0.002c-0.107-0.445-0.169-0.955-0.169-1.48 0-3.63 2.942-6.572 6.572-6.572 1.884 0 3.582 0.792 4.78 2.062l0.003 0.003c1.573-0.316 2.97-0.87 4.23-1.628l-0.059 0.033c-0.509 1.547-1.529 2.81-2.857 3.615l-0.029 0.016c1.398-0.169 2.672-0.533 3.852-1.067l-0.082 0.033c-0.899 1.333-1.986 2.459-3.238 3.372l-0.038 0.026z"></path>
</symbol>
<symbol id="iconLogo" viewBox="0 0 143 32">
<path fill="#fff" style="fill: var(--color1, #fff)" d="M7.14 18.31l-1.385 2.606v8.756h-4.48v-28.509h4.48v12.422l5.865-12.422h4.48l-6.231 12.707 6.231 15.802h-4.602l-4.358-11.363zM22.424 23.116c0 1.032 0.21 1.758 0.631 2.179s0.984 0.631 1.69 0.631 1.269-0.21 1.69-0.631c0.421-0.421 0.631-1.147 0.631-2.179v-15.395c0-1.032-0.21-1.758-0.631-2.179s-0.984-0.631-1.69-0.631c-0.706 0-1.269 0.21-1.69 0.631s-0.631 1.147-0.631 2.179v15.395zM17.944 8.006c0-2.308 0.584-4.080 1.751-5.315s2.851-1.853 5.050-1.853c2.199 0 3.883 0.618 5.050 1.853s1.751 3.007 1.751 5.315v14.825c0 2.308-0.584 4.080-1.751 5.315s-2.851 1.853-5.050 1.853-3.883-0.618-5.050-1.853c-1.168-1.235-1.751-3.007-1.751-5.315v-14.825zM38.889 9.024v20.649h-4.032v-28.509h5.62l4.602 17.065v-17.065h3.991v28.509h-4.602l-5.58-20.649zM52.179 8.006c0-2.308 0.55-4.080 1.649-5.315s2.749-1.853 4.948-1.853c2.199 0 3.849 0.618 4.948 1.853s1.649 3.007 1.649 5.315v0.896h-4.236v-1.181c0-1.032-0.197-1.758-0.591-2.179s-0.943-0.631-1.649-0.631c-0.706 0-1.256 0.21-1.65 0.631s-0.59 1.147-0.59 2.179c0 0.977 0.217 1.839 0.652 2.586s0.978 1.453 1.629 2.118c0.652 0.665 1.351 1.33 2.098 1.996s1.446 1.392 2.097 2.179c0.652 0.787 1.195 1.683 1.629 2.688s0.652 2.186 0.652 3.543c0 2.308-0.563 4.080-1.69 5.315s-2.79 1.853-4.989 1.853c-2.199 0-3.862-0.618-4.989-1.853s-1.69-3.007-1.69-5.315v-1.751h4.236v2.036c0 1.032 0.21 1.751 0.631 2.158s0.984 0.611 1.69 0.611c0.706 0 1.269-0.204 1.69-0.611s0.631-1.127 0.631-2.158c0-0.978-0.217-1.84-0.652-2.586s-0.977-1.453-1.629-2.118c-0.652-0.665-1.351-1.331-2.097-1.996s-1.446-1.392-2.098-2.179c-0.652-0.787-1.195-1.683-1.629-2.688s-0.652-2.186-0.652-3.543zM67.137 1.164h13.847v4.073h-4.684v24.436h-4.48v-24.436h-4.684v-4.073zM92.766 29.673c-0.054-0.19-0.109-0.367-0.163-0.53s-0.102-0.366-0.142-0.611c-0.041-0.244-0.068-0.557-0.082-0.937s-0.020-0.855-0.020-1.426v-4.48c0-1.33-0.231-2.267-0.692-2.81s-1.208-0.815-2.24-0.815h-1.548v11.607h-4.48v-28.509h6.761c2.335 0 4.025 0.543 5.070 1.629s1.568 2.729 1.568 4.928v2.24c0 2.932-0.977 4.86-2.932 5.783 1.14 0.462 1.921 1.215 2.342 2.26s0.631 2.315 0.631 3.808v4.399c0 0.706 0.027 1.324 0.082 1.853s0.19 1.066 0.407 1.609h-4.562zM87.879 5.236v8.756h1.751c0.842 0 1.5-0.217 1.975-0.652s0.713-1.222 0.713-2.362v-2.81c0-1.032-0.183-1.778-0.55-2.24s-0.944-0.692-1.731-0.692h-2.159zM104.507 1.164v21.993c0 1.032 0.21 1.751 0.631 2.159s0.984 0.611 1.69 0.611c0.706 0 1.269-0.204 1.69-0.611s0.631-1.127 0.631-2.159v-21.993h4.236v21.708c0 2.308-0.563 4.080-1.69 5.315s-2.79 1.853-4.989 1.853c-2.199 0-3.862-0.618-4.989-1.853s-1.69-3.007-1.69-5.315v-21.708h4.48zM129.141 1.164h13.847v4.073h-4.684v24.436h-4.48v-24.436h-4.684v-4.073z"></path>
<path fill="#00a4e5" style="fill: var(--color2, #00a4e5)" d="M115.514 15.979l11.636-14.545v29.091l-11.636-14.546z"></path>
</symbol>
<symbol id="iconLogoBlack" viewBox="0 0 144 32">
<path fill="#171819" style="fill: var(--color3, #171819)" d="M7.526 18.31l-1.385 2.606v8.756h-4.48v-28.509h4.48v12.422l5.865-12.422h4.48l-6.231 12.707 6.231 15.802h-4.602l-4.358-11.363zM22.811 23.116c0 1.032 0.21 1.758 0.631 2.179s0.984 0.631 1.69 0.631c0.706 0 1.269-0.21 1.69-0.631s0.631-1.147 0.631-2.179v-15.395c0-1.032-0.21-1.758-0.631-2.179s-0.984-0.631-1.69-0.631c-0.706 0-1.269 0.21-1.69 0.631s-0.631 1.147-0.631 2.179v15.395zM18.331 8.006c0-2.308 0.584-4.080 1.751-5.315s2.851-1.853 5.050-1.853c2.199 0 3.883 0.618 5.050 1.853s1.751 3.007 1.751 5.315v14.825c0 2.308-0.584 4.079-1.751 5.315s-2.851 1.853-5.050 1.853c-2.199 0-3.883-0.618-5.050-1.853s-1.751-3.007-1.751-5.315v-14.825zM39.276 9.024v20.649h-4.032v-28.509h5.62l4.602 17.065v-17.065h3.991v28.509h-4.602l-5.58-20.649zM52.565 8.006c0-2.308 0.55-4.080 1.649-5.315s2.749-1.853 4.948-1.853 3.849 0.618 4.948 1.853c1.1 1.235 1.649 3.007 1.649 5.315v0.896h-4.236v-1.181c0-1.032-0.197-1.758-0.591-2.179s-0.943-0.631-1.649-0.631-1.256 0.21-1.65 0.631c-0.394 0.421-0.59 1.147-0.59 2.179 0 0.977 0.217 1.839 0.652 2.586s0.977 1.453 1.629 2.118c0.652 0.665 1.351 1.33 2.097 1.996s1.446 1.392 2.097 2.179c0.652 0.787 1.195 1.683 1.629 2.688s0.652 2.186 0.652 3.543c0 2.308-0.563 4.079-1.69 5.315s-2.79 1.853-4.989 1.853c-2.199 0-3.862-0.618-4.989-1.853s-1.69-3.007-1.69-5.315v-1.751h4.236v2.036c0 1.032 0.21 1.751 0.631 2.159s0.984 0.611 1.69 0.611 1.269-0.204 1.69-0.611c0.421-0.407 0.631-1.127 0.631-2.159 0-0.977-0.217-1.839-0.652-2.586s-0.977-1.453-1.629-2.118c-0.652-0.665-1.351-1.33-2.097-1.996s-1.446-1.392-2.097-2.179c-0.652-0.787-1.195-1.683-1.629-2.688s-0.652-2.186-0.652-3.543zM67.523 1.164h13.847v4.073h-4.684v24.436h-4.48v-24.436h-4.684v-4.073zM93.152 29.673c-0.054-0.19-0.109-0.367-0.163-0.529s-0.102-0.367-0.143-0.611c-0.041-0.244-0.068-0.557-0.081-0.937s-0.020-0.855-0.020-1.425v-4.48c0-1.331-0.231-2.267-0.692-2.81s-1.208-0.815-2.24-0.815h-1.548v11.607h-4.48v-28.509h6.761c2.335 0 4.025 0.543 5.071 1.629s1.568 2.729 1.568 4.928v2.24c0 2.932-0.977 4.86-2.932 5.783 1.14 0.462 1.921 1.215 2.342 2.26s0.631 2.315 0.631 3.808v4.399c0 0.706 0.027 1.324 0.081 1.853s0.19 1.066 0.407 1.609h-4.561zM88.265 5.236v8.756h1.751c0.842 0 1.5-0.217 1.975-0.652s0.713-1.222 0.713-2.362v-2.81c0-1.032-0.183-1.778-0.55-2.24s-0.943-0.692-1.731-0.692h-2.159zM104.894 1.164v21.993c0 1.032 0.21 1.751 0.631 2.159s0.984 0.611 1.69 0.611 1.269-0.204 1.69-0.611c0.421-0.407 0.631-1.127 0.631-2.159v-21.993h4.236v21.708c0 2.308-0.564 4.079-1.69 5.315s-2.79 1.853-4.989 1.853c-2.199 0-3.862-0.618-4.989-1.853s-1.69-3.007-1.69-5.315v-21.708h4.48zM129.528 1.164h13.847v4.073h-4.684v24.436h-4.48v-24.436h-4.684v-4.073z"></path>
<path fill="#00a4e5" style="fill: var(--color2, #00a4e5)" d="M115.9 15.979l11.636-14.545v29.091l-11.636-14.546z"></path>
</symbol>
</defs>
</svg>
